<?xml version="1.0" encoding="UTF-8" standalone="no"?>
<svg
   width="324.491"
   height="131"
   viewBox="0 0 324.491 131"
   fill="none"
   version="1.1"
   id="svg44"
   sodipodi:docname="header-logo-green.svg"
   inkscape:version="1.2.1 (9c6d41e410, 2022-07-14)"
   xmlns:inkscape="http://www.inkscape.org/namespaces/inkscape"
   xmlns:sodipodi="http://sodipodi.sourceforge.net/DTD/sodipodi-0.dtd"
   xmlns="http://www.w3.org/2000/svg"
   xmlns:svg="http://www.w3.org/2000/svg">
  <defs
     id="defs48" />
  <sodipodi:namedview
     id="namedview46"
     pagecolor="#ffffff"
     bordercolor="#000000"
     borderopacity="0.25"
     inkscape:showpageshadow="2"
     inkscape:pageopacity="0.0"
     inkscape:pagecheckerboard="0"
     inkscape:deskcolor="#d1d1d1"
     showgrid="false"
     inkscape:zoom="1.6388889"
     inkscape:cx="162.91525"
     inkscape:cy="41.491525"
     inkscape:window-width="1450"
     inkscape:window-height="844"
     inkscape:window-x="10"
     inkscape:window-y="48"
     inkscape:window-maximized="0"
     inkscape:current-layer="svg44" />
  <g
     id="g47"
     transform="translate(0,23.999991)">
    <path
       d="m 119.237,18.841918 c 3.652,1.5826 5.819,4.6991 5.819,8.7652 0,6.087 -4.164,9.8365 -10.348,9.8365 H 100.051 V 2.3828184 h 13.537 c 5.868,0 9.764,4.0661 9.764,9.0329996 0,3.1896 -1.583,5.9652 -4.115,7.4261 z M 113.564,5.7671184 h -9.91 V 17.332318 h 9.91 c 3.36,0 6.087,-2.4591 6.087,-5.9652 0,-3.3112996 -2.557,-5.5999996 -6.087,-5.5999996 z m -9.91,28.2434996 h 10.178 c 4.26,0 7.523,-2.3617 7.523,-6.3548 0,-3.8713 -2.922,-6.9391 -6.866,-6.9391 h -10.835 z"
       fill="#a7f349"
       id="path2" />
    <path
       d="m 132.52,37.443618 h -3.579 V 1.6523184 h 3.579 z"
       fill="#a7f349"
       id="path4" />
    <path
       d="m 149.339,38.174118 c -7.84,0 -12.441,-5.7461 -12.441,-13.9026 0,-8.2783 4.748,-13.8539 12.441,-13.8539 7.889,0 12.467,5.7217 12.467,13.8539 0,8.2782 -4.675,13.9026 -12.467,13.9026 z m 0,-3.4331 c 5.844,0 8.668,-4.2608 8.668,-10.4695 0,-6.3305 -2.873,-10.4209 -8.668,-10.4209 -5.892,0 -8.643,4.2852 -8.643,10.4209 0,6.3304 2.946,10.4695 8.643,10.4695 z"
       fill="#a7f349"
       id="path6" />
    <path
       d="m 176.623,38.174118 c -7.961,0 -12.271,-5.7705 -12.368,-13.8783 0.097,-8.2782 4.528,-13.8782 12.393,-13.8782 5.308,0 9.544,2.7756 11.005,7.28 l -3.506,1.12 c -1.242,-3.1409 -4.09,-4.967 -7.524,-4.967 -5.819,0 -8.497,4.3096 -8.57,10.4452 0.073,6.3061 2.922,10.4452 8.57,10.4452 3.555,0 6.112,-1.6556 7.427,-4.8208 l 3.603,1.0713 c -1.972,4.6748 -5.819,7.1826 -11.03,7.1826 z"
       fill="#a7f349"
       id="path8" />
    <path
       d="m 194.822,37.443618 h -3.628 l 0.024,-35.0607996 h 3.604 V 23.808918 l 11.735,-12.6609 h 4.772 l -12.32,13.1478 13.927,13.1478 h -5.21 l -12.904,-12.6608 z"
       fill="#a7f349"
       id="path10" />
    <path
       d="m 224.347,38.174118 c -7.962,0 -12.271,-5.7705 -12.369,-13.8783 0.098,-8.2782 4.529,-13.8782 12.393,-13.8782 5.308,0 9.545,2.7756 11.006,7.28 l -3.506,1.12 c -1.242,-3.1409 -4.091,-4.967 -7.524,-4.967 -5.819,0 -8.497,4.3096 -8.57,10.4452 0.073,6.3061 2.921,10.4452 8.57,10.4452 3.555,0 6.111,-1.6556 7.426,-4.8208 l 3.604,1.0713 c -1.973,4.6748 -5.819,7.1826 -11.03,7.1826 z"
       fill="#a7f349"
       id="path12" />
    <path
       d="m 250.994,10.490618 c 7.889,0 10.543,6.5739 10.543,12.4904 v 14.4626 h -3.604 v -13.4156 c 0,-5.7948 -2.118,-10.1287 -7.621,-10.1287 -5.064,0 -7.791,3.5791 -7.791,9.52 v 14.0243 h -3.604 V 2.3828184 h 3.239 V 14.800218 c 1.947,-2.8487 5.064,-4.3096 8.838,-4.3096 z"
       fill="#a7f349"
       id="path14" />
    <path
       d="m 286.335,15.676718 c 0.633,1.5339 0.779,3.4817 0.779,5.4296 v 16.3373 h -3.19 v -4.3582 c -2.045,3.3356 -5.527,5.0887 -10.007,5.0887 -5.965,0 -8.984,-3.6035 -8.984,-7.7913 0,-4.3096 2.776,-6.5983 6.696,-7.6452 3.554,-0.8522 8.473,-1.4122 11.979,-1.8992 -0.049,-4.7478 -2.021,-7.0365 -7.012,-7.0365 -3.604,0 -6.185,1.5583 -7.183,5.0644 l -3.482,-1.0227 c 1.218,-4.6991 4.919,-7.426 10.713,-7.426 4.797,0 8.303,1.8504 9.691,5.2591 z m -12.004,19.4052 c 5.016,0 8.205,-2.9461 8.887,-6.9148 0.292,-1.2904 0.341,-2.9948 0.341,-4.1878 -3.457,0.4139 -7.596,0.8278 -10.494,1.6313 -2.24,0.6574 -4.553,1.9235 -4.553,4.7722 0,2.2887 1.583,4.6991 5.819,4.6991 z"
       fill="#a7f349"
       id="path16" />
    <path
       d="m 296.058,6.1567184 h -3.58 v -4.0174 h 3.58 z m 0,31.2868996 h -3.58 v -26.2956 h 3.58 z"
       fill="#a7f349"
       id="path18" />
    <path
       d="m 313.948,10.490618 c 7.889,0 10.543,6.5739 10.543,12.4904 v 14.4626 h -3.604 v -13.4156 c 0,-5.7948 -2.118,-10.1287 -7.621,-10.1287 -5.064,0 -7.791,3.5791 -7.791,9.52 v 14.0243 h -3.603 v -26.2956 h 3.238 v 3.6522 c 1.948,-2.8487 5.064,-4.3096 8.838,-4.3096 z"
       fill="#a7f349"
       id="path20" />
    <path
       d="m 118.482,66.147418 6.915,14.1946 h -4.115 l -6.452,-13.3181 h -11.2 v 13.3181 h -3.579 v -35.0607 h 13.537 c 0.682,0 1.583,0.0487 2.459,0.1948 5.478,0.8522 8.546,5.2104 8.546,10.6887 0,4.6017 -2.167,8.4 -6.111,9.9826 z m -14.852,-17.433 v 14.9008 h 9.861 c 0.584,0 1.436,-0.0487 2.167,-0.2191 3.603,-0.7548 5.259,-3.9687 5.259,-7.2313 0,-3.2626 -1.656,-6.4765 -5.259,-7.2556 -0.731,-0.1461 -1.583,-0.1948 -2.167,-0.1948 z"
       fill="#a7f349"
       id="path22" />
    <path
       d="m 149.251,58.575218 c 0.633,1.534 0.779,3.4818 0.779,5.4296 v 16.3372 h -3.19 v -4.358 c -2.045,3.336 -5.527,5.089 -10.007,5.089 -5.965,0 -8.984,-3.604 -8.984,-7.792 0,-4.3092 2.776,-6.5979 6.696,-7.6449 3.554,-0.8522 8.473,-1.4122 11.979,-1.8991 -0.049,-4.7479 -2.021,-7.0365 -7.012,-7.0365 -3.604,0 -6.185,1.5582 -7.183,5.0643 l -3.482,-1.0226 c 1.218,-4.6991 4.919,-7.4261 10.713,-7.4261 4.797,0 8.303,1.8504 9.691,5.2591 z m -12.004,19.4048 c 5.016,0 8.206,-2.946 8.887,-6.914 0.292,-1.291 0.341,-2.9951 0.341,-4.1881 -3.457,0.4139 -7.596,0.8278 -10.494,1.6313 -2.24,0.6573 -4.553,1.9238 -4.553,4.7718 0,2.289 1.583,4.699 5.819,4.699 z"
       fill="#a7f349"
       id="path24" />
    <path
       d="m 173.339,57.138718 v -11.8574 h 3.603 v 35.0607 h -3.214 v -3.676 c -1.899,2.727 -4.796,4.407 -8.619,4.407 -7.377,0 -11.662,-6.014 -11.662,-13.903 0,-7.84 4.309,-13.8539 11.516,-13.8539 3.652,0 6.452,1.4365 8.376,3.8226 z m -7.865,20.5983 c 5.6,0 8.254,-4.48 8.254,-10.567 0,-6.1843 -2.702,-10.5182 -8.181,-10.5182 -5.648,0 -8.302,4.5774 -8.302,10.5182 0,5.99 2.751,10.567 8.229,10.567 z"
       fill="#a7f349"
       id="path26" />
    <path
       d="m 202.253,58.575218 c 0.633,1.534 0.779,3.4818 0.779,5.4296 v 16.3372 h -3.189 v -4.358 c -2.046,3.336 -5.527,5.089 -10.007,5.089 -5.966,0 -8.985,-3.604 -8.985,-7.792 0,-4.3092 2.776,-6.5979 6.696,-7.6449 3.555,-0.8522 8.473,-1.4122 11.979,-1.8991 -0.049,-4.7479 -2.021,-7.0365 -7.012,-7.0365 -3.604,0 -6.185,1.5582 -7.183,5.0643 l -3.482,-1.0226 c 1.218,-4.6991 4.919,-7.4261 10.714,-7.4261 4.796,0 8.302,1.8504 9.69,5.2591 z m -12.004,19.4048 c 5.016,0 8.206,-2.946 8.887,-6.914 0.293,-1.291 0.341,-2.9951 0.341,-4.1881 -3.457,0.4139 -7.596,0.8278 -10.494,1.6313 -2.24,0.6573 -4.553,1.9238 -4.553,4.7718 0,2.289 1.583,4.699 5.819,4.699 z"
       fill="#a7f349"
       id="path28" />
    <path
       d="m 213.169,55.775218 c 2.069,-1.8017 5.356,-2.313 7.669,-1.7287 v 3.36 c -1.947,-0.4626 -4.382,-0.3652 -6.281,1.1931 -2.63,2.0696 -3.068,5.4783 -3.068,8.6191 v 13.1233 h -3.579 v -26.2955 h 3.214 v 4.1635 c 0.56,-0.9982 1.29,-1.8504 2.045,-2.4348 z"
       fill="#a7f349"
       id="path30" />
    <path
       d="m 81.5,41.500018 c 0,22.0914 -17.909,40 -40,40 -22.0914,0 -40,-17.9086 -40,-40"
       stroke="#a7f349"
       stroke-width="3"
       id="path32" />
    <path
       d="m 41.5,1.5000184 c -22.0914,0 -40,17.9085996 -40,39.9999996"
       stroke="#a7f349"
       stroke-width="3"
       id="path34" />
    <circle
       cx="-41.500019"
       cy="41.5"
       r="9.5"
       transform="rotate(-90)"
       fill="#a7f349"
       stroke="#a7f349"
       id="circle36" />
    <circle
       cx="-21.502018"
       cy="61.499897"
       r="3.5"
       transform="rotate(-90)"
       fill="#a7f349"
       stroke="#a7f349"
       id="circle38" />
    <path
       d="M 42.9999,1.5187184 C 43.0102,0.69041839 42.3471,0.01051839 41.5187,1.1838612e-4 40.6904,-0.01018161 40.0105,0.65291839 40.0001,1.4813184 Z m -0.5,39.9999996 0.5,-39.9999996 -2.9998,-0.0374 -0.5,39.9999996 z"
       fill="#a7f349"
       id="path40" />
    <path
       d="m 41.5,41.000018 40,0.5"
       stroke="#a7f349"
       stroke-width="3"
       stroke-linecap="round"
       id="path42" />
  </g>
</svg>
