<svg width="400" height="144" viewBox="0 0 400 144" fill="none" xmlns="http://www.w3.org/2000/svg">
<path d="M156.737 49.3419C160.389 50.9245 162.556 54.041 162.556 58.1071C162.556 64.1941 158.392 67.9436 152.208 67.9436H137.551V32.8828H151.088C156.956 32.8828 160.852 36.9489 160.852 41.9158C160.852 45.1054 159.269 47.881 156.737 49.3419ZM151.064 36.2671H141.154V47.8323H151.064C154.424 47.8323 157.151 45.3732 157.151 41.8671C157.151 38.5558 154.594 36.2671 151.064 36.2671ZM141.154 64.5106H151.332C155.592 64.5106 158.855 62.1489 158.855 58.1558C158.855 54.2845 155.933 51.2167 151.989 51.2167H141.154V64.5106Z" fill="#051417"/>
<path d="M170.02 67.9436H166.441V32.1523H170.02V67.9436Z" fill="#051417"/>
<path d="M186.839 68.6741C178.999 68.6741 174.398 62.928 174.398 54.7715C174.398 46.4932 179.146 40.9176 186.839 40.9176C194.728 40.9176 199.306 46.6393 199.306 54.7715C199.306 63.0497 194.631 68.6741 186.839 68.6741ZM186.839 65.241C192.683 65.241 195.507 60.9802 195.507 54.7715C195.507 48.441 192.634 44.3506 186.839 44.3506C180.947 44.3506 178.196 48.6358 178.196 54.7715C178.196 61.1019 181.142 65.241 186.839 65.241Z" fill="#051417"/>
<path d="M214.123 68.6741C206.162 68.6741 201.852 62.9036 201.755 54.7958C201.852 46.5176 206.283 40.9176 214.148 40.9176C219.456 40.9176 223.692 43.6932 225.153 48.1976L221.647 49.3176C220.405 46.1767 217.557 44.3506 214.123 44.3506C208.304 44.3506 205.626 48.6602 205.553 54.7958C205.626 61.1019 208.475 65.241 214.123 65.241C217.678 65.241 220.235 63.5854 221.55 60.4202L225.153 61.4915C223.181 66.1663 219.334 68.6741 214.123 68.6741Z" fill="#051417"/>
<path d="M232.322 67.9436H228.694L228.718 32.8828H232.322V54.3089L244.057 41.648H248.829L236.509 54.7958L250.436 67.9436H245.226L232.322 55.2828V67.9436Z" fill="#051417"/>
<path d="M261.847 68.6741C253.885 68.6741 249.576 62.9036 249.478 54.7958C249.576 46.5176 254.007 40.9176 261.871 40.9176C267.179 40.9176 271.416 43.6932 272.877 48.1976L269.371 49.3176C268.129 46.1767 265.28 44.3506 261.847 44.3506C256.028 44.3506 253.35 48.6602 253.277 54.7958C253.35 61.1019 256.198 65.241 261.847 65.241C265.402 65.241 267.958 63.5854 269.273 60.4202L272.877 61.4915C270.904 66.1663 267.058 68.6741 261.847 68.6741Z" fill="#051417"/>
<path d="M288.494 40.9906C296.383 40.9906 299.037 47.5645 299.037 53.481V67.9436H295.433V54.528C295.433 48.7332 293.315 44.3993 287.812 44.3993C282.748 44.3993 280.021 47.9784 280.021 53.9193V67.9436H276.417V32.8828H279.656V45.3002C281.603 42.4515 284.72 40.9906 288.494 40.9906Z" fill="#051417"/>
<path d="M323.835 46.1767C324.468 47.7106 324.614 49.6584 324.614 51.6063V67.9436H321.424V63.5854C319.379 66.921 315.897 68.6741 311.417 68.6741C305.452 68.6741 302.433 65.0706 302.433 60.8828C302.433 56.5732 305.209 54.2845 309.129 53.2376C312.683 52.3854 317.602 51.8254 321.108 51.3384C321.059 46.5906 319.087 44.3019 314.096 44.3019C310.492 44.3019 307.911 45.8602 306.913 49.3663L303.431 48.3436C304.649 43.6445 308.35 40.9176 314.144 40.9176C318.941 40.9176 322.447 42.768 323.835 46.1767ZM311.831 65.5819C316.847 65.5819 320.036 62.6358 320.718 58.6671C321.01 57.3767 321.059 55.6723 321.059 54.4793C317.602 54.8932 313.463 55.3071 310.565 56.1106C308.325 56.768 306.012 58.0341 306.012 60.8828C306.012 63.1715 307.595 65.5819 311.831 65.5819Z" fill="#051417"/>
<path d="M333.558 36.6567H329.978V32.6393H333.558V36.6567ZM333.558 67.9436H329.978V41.648H333.558V67.9436Z" fill="#051417"/>
<path d="M351.448 40.9906C359.337 40.9906 361.991 47.5645 361.991 53.481V67.9436H358.387V54.528C358.387 48.7332 356.269 44.3993 350.766 44.3993C345.702 44.3993 342.975 47.9784 342.975 53.9193V67.9436H339.372V41.648H342.61V45.3002C344.558 42.4515 347.674 40.9906 351.448 40.9906Z" fill="#051417"/>
<path d="M155.982 96.6474L162.897 110.842H158.782L152.33 97.5239H141.13V110.842H137.551V75.7813H151.088C151.77 75.7813 152.671 75.83 153.547 75.9761C159.025 76.8283 162.093 81.1865 162.093 86.6648C162.093 91.2665 159.926 95.0648 155.982 96.6474ZM141.13 79.2144V94.1152H150.991C151.575 94.1152 152.427 94.0665 153.158 93.8961C156.761 93.1413 158.417 89.9274 158.417 86.6648C158.417 83.4022 156.761 80.1883 153.158 79.4092C152.427 79.2631 151.575 79.2144 150.991 79.2144H141.13Z" fill="#051417"/>
<path d="M186.751 89.0752C187.384 90.6092 187.53 92.557 187.53 94.5048V110.842H184.34V106.484C182.295 109.82 178.813 111.573 174.333 111.573C168.368 111.573 165.349 107.969 165.349 103.781C165.349 99.4718 168.125 97.1831 172.045 96.1361C175.599 95.2839 180.518 94.7239 184.024 94.237C183.975 89.4891 182.003 87.2005 177.012 87.2005C173.408 87.2005 170.827 88.7587 169.829 92.2648L166.347 91.2422C167.565 86.5431 171.266 83.8161 177.06 83.8161C181.857 83.8161 185.363 85.6665 186.751 89.0752ZM174.747 108.48C179.763 108.48 182.953 105.534 183.634 101.566C183.926 100.275 183.975 98.5709 183.975 97.3779C180.518 97.7918 176.379 98.2057 173.481 99.0092C171.241 99.6665 168.928 100.933 168.928 103.781C168.928 106.07 170.511 108.48 174.747 108.48Z" fill="#051417"/>
<path d="M210.839 87.6387V75.7813H214.442V110.842H211.228V107.166C209.329 109.893 206.432 111.573 202.609 111.573C195.232 111.573 190.947 105.559 190.947 97.67C190.947 89.83 195.256 83.8161 202.463 83.8161C206.115 83.8161 208.915 85.2526 210.839 87.6387ZM202.974 108.237C208.574 108.237 211.228 103.757 211.228 97.67C211.228 91.4857 208.526 87.1518 203.047 87.1518C197.399 87.1518 194.745 91.7292 194.745 97.67C194.745 103.66 197.496 108.237 202.974 108.237Z" fill="#051417"/>
<path d="M239.753 89.0752C240.386 90.6092 240.532 92.557 240.532 94.5048V110.842H237.343V106.484C235.297 109.82 231.816 111.573 227.336 111.573C221.37 111.573 218.351 107.969 218.351 103.781C218.351 99.4718 221.127 97.1831 225.047 96.1361C228.602 95.2839 233.52 94.7239 237.026 94.237C236.977 89.4891 235.005 87.2005 230.014 87.2005C226.41 87.2005 223.829 88.7587 222.831 92.2648L219.349 91.2422C220.567 86.5431 224.268 83.8161 230.063 83.8161C234.859 83.8161 238.365 85.6665 239.753 89.0752ZM227.749 108.48C232.765 108.48 235.955 105.534 236.636 101.566C236.929 100.275 236.977 98.5709 236.977 97.3779C233.52 97.7918 229.381 98.2057 226.483 99.0092C224.243 99.6665 221.93 100.933 221.93 103.781C221.93 106.07 223.513 108.48 227.749 108.48Z" fill="#051417"/>
<path d="M250.669 86.2752C252.738 84.4735 256.025 83.9622 258.338 84.5465V87.9065C256.391 87.4439 253.956 87.5413 252.057 89.0996C249.427 91.1692 248.989 94.5779 248.989 97.7187V110.842H245.41V84.5465H248.624V88.71C249.184 87.7118 249.914 86.8596 250.669 86.2752Z" fill="#051417"/>
<path d="M119 72C119 94.0914 101.091 112 79 112C56.9086 112 39 94.0914 39 72" stroke="#051417" stroke-width="3"/>
<path d="M79 32C56.9086 32 39 49.9086 39 72" stroke="#051417" stroke-width="3"/>
<circle cx="79" cy="72" r="9.5" transform="rotate(-90 79 72)" fill="#051417" stroke="#051417"/>
<circle cx="98.9999" cy="52.002" r="3.5" transform="rotate(-90 98.9999 52.002)" fill="#051417" stroke="#051417"/>
<path d="M80.4999 32.0187C80.5102 31.1904 79.8471 30.5105 79.0187 30.5001C78.1904 30.4898 77.5105 31.1529 77.5001 31.9813L80.4999 32.0187ZM79.9999 72.0187L80.4999 32.0187L77.5001 31.9813L77.0001 71.9813L79.9999 72.0187Z" fill="#051417"/>
<path d="M79 71.5L119 72" stroke="#051417" stroke-width="3" stroke-linecap="round"/>
</svg>
